PathFileType	4	(X/Y/Z)	C:/Users/opensim2020/Desktop/walking_exp_matlab/subject02_walking13_straight_03.trc																																																																																																																									
DataRate	CameraRate	NumFrames	NumMarkers	Units	OrigDataRate	OrigDataStartFrame	OrigNumFrames																																																																																																																					
100	100	6	41	mm	100	1376	129																																																																																																																					
Frame#	Time	LFHD			RFHD			LBHD			RBHD			C7			T10			CLAV			STRN			RBAK			LSHO			LUPA			LELB			LFRM			LWRA			LWRB			LFIN			RSHO			RUPA			RELB			RFRM			RWRA			RWRB			RFIN			LASI			RASI			LPSI			RPSI			LTHI			LKNE			LTIB			LANK			LHEE			LTOE			RTHI			RKNE			RTIB			RANK			RHEE			RTOE			*39			*40		
		X1	Y1	Z1	X2	Y2	Z2	X3	Y3	Z3	X4	Y4	Z4	X5	Y5	Z5	X6	Y6	Z6	X7	Y7	Z7	X8	Y8	Z8	X9	Y9	Z9	X10	Y10	Z10	X11	Y11	Z11	X12	Y12	Z12	X13	Y13	Z13	X14	Y14	Z14	X15	Y15	Z15	X16	Y16	Z16	X17	Y17	Z17	X18	Y18	Z18	X19	Y19	Z19	X20	Y20	Z20	X21	Y21	Z21	X22	Y22	Z22	X23	Y23	Z23	X24	Y24	Z24	X25	Y25	Z25	X26	Y26	Z26	X27	Y27	Z27	X28	Y28	Z28	X29	Y29	Z29	X30	Y30	Z30	X31	Y31	Z31	X32	Y32	Z32	X33	Y33	Z33	X34	Y34	Z34	X35	Y35	Z35	X36	Y36	Z36	X37	Y37	Z37	X38	Y38	Z38	X39	Y39	Z39	X40	Y40	Z40	X41	Y41	Z41
																																																																																																																												
65	0.64	177.368	1735.24524	-1072.71973	134.65082	1704.26855	-936.99243	53.18888	1668.03516	-1125.93823	-0.58207	1636.02759	-996.65112	-23.93007	1517.92993	-1071.86707	-69.75437	1241.07715	-1082.23352	117.75881	1454.99841	-1069.48401	173.56258	1284.40161	-1067.05762	-84.04673	1336.99585	-1024.30676	65.07036	1507.70288	-1241.26697	103.82988	1326.99036	-1352.34058	148.78362	1196.39587	-1389.69885	220.2016	1084.95667	-1410.14844	323.02097	996.94421	-1376.2135	287.11426	982.05609	-1417.04944	336.29141	938.60559	-1422.91626	30.25504	1474.80505	-880.42352	-22.2511	1286.87329	-808.50055	-20.67904	1139.84387	-792.84619	-0.4581	1019.95258	-776.94995	40.87114	891.19885	-801.07953	-6.54486	889.71375	-768.89783	25.50544	823.44965	-770.57916	157.58144	984.04736	-1214.44983	158.49136	973.1377	-962.21307	-50.21851	1028.30957	-1131.87976	-57.25608	1024.43921	-1016.50146	59.10785	672.93811	-1262.35352	-3.96328	476.83591	-1235.03772	-85.06025	299.00198	-1241.42786	-109.9298	75.16497	-1207.63245	-151.86954	48.64405	-1160.04382	45.28355	33.75027	-1211.18518	167.29973	680.69769	-879.25726	235.60051	484.59689	-911.61371	196.2382	299.91629	-922.88947	187.02223	110.20525	-968.99152	169.51422	56.13587	-1035.49097	329.81033	58.50671	-927.31281	55.19211	1797.64941	-1009.58386	2846.0127	1034.28259	-3356.83203
66	0.65	190.24722	1733.86499	-1072.24683	147.34822	1702.76318	-936.50641	66.34586	1666.07568	-1125.31458	12.5376	1633.88818	-995.96399	-10.19863	1515.98547	-1071.48889	-56.17313	1238.98206	-1081.61426	131.62489	1453.06738	-1068.69666	187.3083	1282.34204	-1066.48035	-70.33769	1335.00049	-1024.41748	79.43214	1506.25061	-1240.41492	120.03049	1326.80762	-1352.27124	167.93884	1197.66345	-1390.68506	242.78877	1088.43921	-1411.48193	349.05225	1004.54382	-1378.71155	312.89566	987.7049	-1418.62048	363.46854	946.21765	-1425.18542	43.15883	1472.77026	-880.00031	-11.07651	1285.24109	-808.75122	-11.85363	1138.2124	-792.97461	6.53692	1018.24762	-776.60413	45.45409	888.66742	-800.16895	-2.30457	888.14374	-768.46539	28.74027	821.46155	-769.50555	169.69547	981.1839	-1214.20007	172.42424	970.53119	-961.47815	-37.34139	1026.4436	-1130.32849	-43.77076	1022.51733	-1015.03412	66.72257	671.91302	-1262.05054	1.28038	476.51538	-1234.2981	-82.37894	300.07147	-1240.27478	-109.55692	76.09499	-1207.11987	-151.59816	49.96922	-1159.42505	45.21548	33.48334	-1211.02344	181.33742	679.03522	-879.38855	249.3026	482.27695	-913.17371	222.0563	294.96701	-922.67133	227.08934	104.54008	-966.73914	213.951	50.08311	-1033.19031	373.48175	61.2411	-924.11908	67.86641	1795.70618	-1008.9231	2845.32373	1034.15771	-3360.46924
67	0.66	203.03374	1732.31677	-1071.5415	160.2294	1701.13306	-935.74701	79.48069	1663.95471	-1124.66602	25.75372	1631.62744	-995.30591	3.59876	1513.8988	-1070.92993	-42.3938	1237.23938	-1080.79053	145.53891	1451.03857	-1067.849	201.18117	1280.29114	-1065.77051	-56.62711	1332.89893	-1024.35803	93.82147	1504.60657	-1239.48926	136.1824	1326.51599	-1352.00574	186.666	1198.74182	-1391.39709	264.80774	1091.9176	-1412.87048	374.46445	1011.9978	-1380.80847	338.02969	993.35413	-1419.7782	389.90469	953.73169	-1426.95007	56.59092	1470.21851	-879.35889	-0.03012	1283.54126	-808.7337	-2.29978	1136.61877	-792.83472	13.40893	1016.43402	-776.25244	50.0639	886.21173	-799.04565	2.22041	886.51666	-767.85358	32.37489	819.65686	-768.15204	182.79323	978.63953	-1213.49353	186.41302	967.82288	-960.30988	-24.38306	1024.29919	-1128.71375	-30.29905	1020.27008	-1013.50562	74.60582	670.91583	-1261.69885	6.96629	476.25165	-1233.51208	-79.17112	300.77969	-1239.4801	-109.08273	77.1449	-1206.63879	-151.04895	51.21939	-1158.64575	45.41206	33.38147	-1211.11304	194.64186	676.63275	-879.47595	262.23752	479.74237	-914.8175	247.95253	291.15079	-922.28796	266.23236	100.68463	-964.34479	256.88687	45.96455	-1030.71631	415.38925	64.97107	-920.63232	80.37675	1793.71252	-1008.4317	2846.06104	1034.23865	-3356.86572
68	0.67	215.82797	1730.72217	-1070.58203	173.18863	1699.58032	-934.6626	92.60882	1661.73071	-1123.88855	38.81706	1629.07678	-994.69794	17.4764	1511.71484	-1070.32214	-28.61257	1235.12317	-1079.88196	159.4915	1448.96106	-1066.8728	215.09984	1278.1427	-1064.88623	-42.81877	1330.70593	-1024.12524	108.21095	1502.81177	-1238.42773	152.17099	1326.16272	-1351.65613	204.88847	1199.59656	-1391.94214	286.42725	1095.32385	-1413.83228	398.7323	1019.27081	-1382.53125	362.49533	998.98755	-1420.79272	415.81876	961.0799	-1428.4054	69.91791	1467.94873	-878.62494	10.8293	1281.73206	-808.58533	6.99423	1135.15845	-792.76208	20.70574	1014.91724	-775.76385	55.6706	883.92877	-797.67303	7.29471	885.22852	-767.05023	36.33285	817.74622	-766.81982	195.62576	976.13416	-1212.70422	200.50652	965.19019	-959.03223	-11.33603	1021.87463	-1126.91614	-16.81311	1017.79828	-1012.13403	82.78171	669.97119	-1261.63501	13.17955	476.0787	-1232.72229	-75.59105	301.92975	-1238.55005	-108.4974	78.40121	-1206.14856	-150.53865	53.12506	-1158.14783	45.56469	33.2908	-1211.23901	207.35114	673.5235	-879.43298	275.01434	476.99603	-916.32495	272.77438	288.14304	-922.09424	303.6171	98.35947	-962.04755	298.06754	43.28494	-1028.27747	455.04407	70.02508	-917.2486	92.88897	1791.5835	-1007.72083	2845.97632	1034.3855	-3356.95728
69	0.68	228.63173	1729.11816	-1069.72205	186.06264	1697.84692	-933.97388	105.6522	1659.6521	-1123.58826	52.35013	1626.85059	-993.56879	31.22801	1509.23889	-1069.70349	-14.75668	1232.95886	-1078.68591	173.54674	1446.83398	-1065.79797	229.19722	1276.00098	-1063.90125	-29.00733	1328.55017	-1023.74695	122.60765	1500.95911	-1237.22046	168.02682	1325.3634	-1350.69531	222.6424	1200.20764	-1391.97388	307.16522	1098.11975	-1413.87646	422.7298	1026.59448	-1384.24182	386.26132	1004.48834	-1421.36023	440.53238	967.95831	-1429.10388	83.43633	1465.77234	-877.69281	22.38741	1280.01587	-808.32019	16.85155	1133.6062	-792.61127	28.26395	1013.3302	-775.12628	61.75995	881.80975	-795.84296	12.81329	883.98621	-766.03632	39.7369	815.83307	-765.55219	208.55443	973.80334	-1211.73706	214.75014	962.57471	-957.53986	1.86832	1019.24286	-1125.01038	-3.16517	1015.13507	-1010.55737	91.68071	669.02997	-1260.90088	20.05452	475.96088	-1231.89185	-71.59953	303.29626	-1237.7179	-107.8521	80.08228	-1206.0033	-150.15924	55.46637	-1157.88513	45.64473	32.93182	-1211.42859	219.21471	669.71027	-879.2926	287.97366	474.25015	-917.58765	296.98743	285.94482	-921.73279	338.85208	97.70999	-959.87238	336.10825	42.59089	-1025.80078	492.21365	76.19028	-914.67902	105.21996	1789.35767	-1007.09521	2845.14502	1034.47485	-3360.37842
70	0.69	241.48482	1727.49133	-1068.74341	199.30363	1696.18811	-932.67322	119.01517	1657.17468	-1122.02234	65.66508	1624.42883	-992.45795	45.22594	1507.05103	-1068.79382	-0.93545	1230.88684	-1077.43689	187.64149	1444.72498	-1064.59082	243.26248	1273.85168	-1062.72864	-14.80084	1326.17224	-1022.98883	136.95651	1498.98425	-1235.62305	183.92317	1325.12805	-1350.4115	239.94565	1200.60486	-1392.10083	327.47809	1100.87866	-1413.87781	445.49222	1033.5387	-1385.54895	409.38882	1009.80365	-1421.65771	464.72357	974.9942	-1429.70679	96.93508	1463.58008	-876.65814	33.89455	1278.26453	-807.88599	27.16075	1132.08167	-792.32288	36.1971	1011.60724	-774.58282	67.72599	879.62549	-794.59369	18.6461	882.81079	-765.0918	44.69471	814.36475	-763.61902	221.81433	971.7951	-1210.52747	229.063	960.24579	-956.07782	15.16083	1016.53735	-1122.87073	10.67866	1012.44794	-1008.87659	101.0831	668.27985	-1260.65857	27.5169	475.95877	-1231.1394	-67.25261	305.01877	-1236.88843	-107.00385	82.11048	-1205.98047	-149.62119	58.27054	-1157.67944	45.57438	32.78734	-1211.8031	230.25981	665.81195	-878.59778	301.80463	471.88608	-919.08368	320.15512	284.80075	-920.86737	371.0379	98.18665	-957.66113	370.43341	43.04191	-1023.30865	526.49396	82.23563	-913.29358	117.68848	1787.36365	-1006.37653	2845.7688	1034.49341	-3357.02563
